<svg width="505" height="335" viewBox="0 0 505 335" fill="none" xmlns="http://www.w3.org/2000/svg">
<path d="M88.4299 82.1521C4.34089 105.791 53.3928 215.476 88.4299 267.364H468.728C495.371 218.015 532.671 105.974 468.728 52.6034C388.799 -14.1095 331.864 118.098 267.265 129.674C202.665 141.249 193.541 52.6034 88.4299 82.1521Z" fill="#EBE1EE" fill-opacity="0.2"/>
<circle cx="275.688" cy="154.794" r="96.0612" fill="url(#paint0_linear)"/>
<ellipse cx="362.016" cy="153.496" rx="9.73593" ry="24.6644" fill="#EDD7EC" fill-opacity="0.46"/>
<ellipse cx="189.363" cy="153.496" rx="9.73593" ry="24.6644" fill="#EDD7EC" fill-opacity="0.46"/>
<rect x="216.492" y="84.271" width="116.737" height="140.085" rx="57.7874" fill="#DA8DD7" fill-opacity="0.2"/>
<circle cx="303.123" cy="146.326" r="6.75847" fill="white"/>
<circle cx="246.597" cy="146.326" r="6.75847" fill="white"/>
<path d="M296.027 184.634C296.027 184.481 295.877 184.481 295.877 184.329L295.579 183.796C294.386 182.576 292.596 182.576 292.596 182.576C280.143 183.796 265.304 183.11 257.773 182.576C256.579 182.576 255.61 183.11 255.088 183.948C254.417 184.939 254.417 186.158 255.088 187.149C258.22 192.789 263.589 196.98 269.704 198.886C277.533 201.401 286.034 198.352 291.851 192.941C293.491 191.417 294.983 189.512 296.027 187.53C296.399 186.615 296.549 185.472 296.027 184.634Z" fill="white"/>
<g filter="url(#filter0_d)">
<path d="M221.407 207.153H83.7796C72.9211 207.153 64.1186 215.955 64.1186 226.814V231.729C64.1186 242.588 72.9211 251.39 83.7796 251.39H201.746C212.604 251.39 221.407 242.588 221.407 231.729V207.153Z" fill="url(#paint1_linear)"/>
</g>
<path d="M86.2373 233.898H87.3309L84.1851 225.174H82.9932L79.8474 233.898H80.9411L81.7152 231.748H85.4631L86.2373 233.898ZM82.0716 230.753L83.583 226.55L85.0945 230.753H82.0716ZM89.2232 224.682H88.1664V233.898H89.2232V224.682ZM99.0776 227.681L97.3941 232.608L95.7106 227.681H94.5924L92.9212 232.608L91.2378 227.681H90.1195L92.3683 233.898H93.4619L95.1577 229.229L96.8412 233.898H97.9471L100.196 227.681H99.0776ZM100.695 230.777C100.695 232.571 102.059 234.021 103.84 234.021C105.008 234.021 105.954 233.358 106.347 232.485L106.396 233.898H107.404V227.681H106.396L106.347 229.094C105.954 228.221 105.008 227.558 103.84 227.558C102.059 227.558 100.695 229.008 100.695 230.777ZM101.751 230.777C101.751 229.573 102.734 228.553 104 228.553C105.278 228.553 106.236 229.573 106.236 230.777C106.236 232.006 105.278 233.026 104 233.026C102.734 233.026 101.751 232.006 101.751 230.777ZM108.576 227.681L111.279 233.886L110.05 236.725H111.169L115.088 227.681H113.958L111.844 232.584L109.706 227.681H108.576ZM115.467 232.178C115.614 233.37 116.634 234.021 118.06 234.021C119.423 234.021 120.419 233.37 120.419 232.338C120.419 231.404 119.755 230.851 118.588 230.421C117.347 229.942 116.72 229.782 116.72 229.217C116.72 228.713 117.298 228.443 117.801 228.443C118.367 228.443 118.907 228.75 118.981 229.315H120.026C119.964 228.307 119.092 227.558 117.777 227.558C116.708 227.558 115.676 228.172 115.676 229.217C115.676 230.2 116.511 230.667 117.421 230.974C118.723 231.465 119.362 231.613 119.362 232.313C119.362 232.805 118.834 233.124 118.084 233.124C117.212 233.124 116.683 232.743 116.523 232.178H115.467ZM127.993 227.558C127.415 227.558 126.936 227.939 126.555 228.467L126.506 227.681H125.511V233.898H126.568V230.802C126.568 229.634 126.973 228.553 127.932 228.553C128.226 228.553 128.472 228.664 128.595 228.75L128.779 227.828C128.644 227.705 128.374 227.558 127.993 227.558ZM135.401 230.851C135.401 229.094 134.196 227.558 132.292 227.558C130.449 227.558 129.183 229.008 129.183 230.753C129.183 232.633 130.51 234.021 132.39 234.021C134.024 234.021 134.983 232.94 135.229 232.092L134.295 231.969C134.024 232.522 133.41 233.075 132.39 233.075C131.112 233.075 130.276 232.252 130.24 231.121H135.401V230.851ZM132.292 228.504C133.508 228.504 134.282 229.389 134.344 230.359H130.24C130.276 229.34 131.124 228.504 132.292 228.504ZM136.431 230.777C136.431 232.571 137.795 234.021 139.577 234.021C140.744 234.021 141.69 233.358 142.083 232.485L142.133 233.898H143.14V227.681H142.133L142.083 229.094C141.69 228.221 140.744 227.558 139.577 227.558C137.795 227.558 136.431 229.008 136.431 230.777ZM137.488 230.777C137.488 229.573 138.471 228.553 139.736 228.553C141.014 228.553 141.973 229.573 141.973 230.777C141.973 232.006 141.014 233.026 139.736 233.026C138.471 233.026 137.488 232.006 137.488 230.777ZM144.231 230.777C144.231 232.571 145.595 234.021 147.377 234.021C148.544 234.021 149.49 233.358 149.884 232.485L149.933 233.898H150.94V224.682H149.884V229.094C149.49 228.221 148.544 227.558 147.377 227.558C145.595 227.558 144.231 229.008 144.231 230.777ZM145.288 230.777C145.288 229.573 146.271 228.553 147.537 228.553C148.814 228.553 149.773 229.573 149.773 230.777C149.773 232.006 148.814 233.026 147.537 233.026C146.271 233.026 145.288 232.006 145.288 230.777ZM152.172 227.681L154.876 233.886L153.647 236.725H154.765L158.685 227.681H157.554L155.441 232.584L153.303 227.681H152.172ZM166.498 227.681H165.208V225.837H164.163V227.681H163.279V228.676H164.163V233.898H165.208V228.676H166.498V227.681ZM170.457 234.021C172.349 234.021 173.75 232.571 173.75 230.777C173.75 229.008 172.349 227.558 170.457 227.558C168.577 227.558 167.151 229.008 167.151 230.777C167.151 232.571 168.577 234.021 170.457 234.021ZM170.457 233.026C169.191 233.026 168.208 232.006 168.208 230.777C168.208 229.573 169.191 228.553 170.457 228.553C171.735 228.553 172.693 229.573 172.693 230.777C172.693 232.006 171.735 233.026 170.457 233.026ZM182.329 227.558C181.26 227.558 180.461 228.086 179.896 228.762V224.682H178.839V233.898H179.896V230.728C179.896 229.843 180.486 228.553 181.961 228.553C182.919 228.553 183.583 229.143 183.583 230.704V233.898H184.639V230.261C184.639 228.504 183.767 227.558 182.329 227.558ZM191.921 230.851C191.921 229.094 190.717 227.558 188.812 227.558C186.969 227.558 185.703 229.008 185.703 230.753C185.703 232.633 187.031 234.021 188.911 234.021C190.545 234.021 191.503 232.94 191.749 232.092L190.815 231.969C190.545 232.522 189.931 233.075 188.911 233.075C187.633 233.075 186.797 232.252 186.76 231.121H191.921V230.851ZM188.812 228.504C190.029 228.504 190.803 229.389 190.864 230.359H186.76C186.797 229.34 187.645 228.504 188.812 228.504ZM194.068 224.682H193.012V233.898H194.068V224.682ZM195.604 236.725H196.66V232.485C197.041 233.37 197.987 234.021 199.155 234.021C200.937 234.021 202.313 232.571 202.313 230.777C202.313 229.008 200.937 227.558 199.155 227.558C197.987 227.558 197.041 228.209 196.66 229.094L196.599 227.681H195.604V236.725ZM196.759 230.777C196.759 229.573 197.729 228.553 198.995 228.553C200.273 228.553 201.256 229.573 201.256 230.777C201.256 232.006 200.273 233.026 198.995 233.026C197.729 233.026 196.759 232.006 196.759 230.777ZM204.181 231.502H205.128L205.189 225.174H204.132L204.181 231.502ZM204.661 234.021C205.005 234.021 205.263 233.751 205.263 233.419C205.263 233.075 205.005 232.817 204.661 232.817C204.329 232.817 204.058 233.075 204.058 233.419C204.058 233.751 204.329 234.021 204.661 234.021Z" fill="white"/>
<g filter="url(#filter1_d)">
<path d="M282.521 35.9391C195.323 33.2884 175.591 85.1164 172.83 115.556C172.588 118.221 170.405 120.321 167.729 120.321C164.855 120.321 162.569 117.917 162.859 115.057C166.828 76.0254 189.897 8.55732 282.521 13.2305C376.174 17.9556 394.71 85.4837 391.958 123.398C391.797 125.619 389.913 127.28 387.686 127.28C385.234 127.28 383.269 125.288 383.147 122.84C381.576 91.3742 358.448 37.9377 282.521 35.9391Z" fill="#402E3C"/>
</g>
<g filter="url(#filter2_d)">
<rect width="11.7785" height="41.9217" rx="5.88926" transform="matrix(0.986874 0.16149 -0.188659 0.982043 392.876 140.85)" fill="#8A2387"/>
</g>
<g filter="url(#filter3_d)">
<rect width="11.7785" height="41.9217" rx="5.88926" transform="matrix(-0.986874 0.16149 0.188659 0.982043 158.073 140.85)" fill="#8A2387"/>
</g>
<path d="M367.636 194.25C342.568 221.775 302.304 219.646 285.305 215.14V208.996C328.068 224.233 355.143 202.647 363.335 189.949L367.636 194.25Z" fill="url(#paint2_linear)"/>
<ellipse cx="282.848" cy="214.526" rx="15.9746" ry="8.6017" fill="url(#paint3_linear)"/>
<mask id="mask0" mask-type="alpha" maskUnits="userSpaceOnUse" x="150" y="116" width="47" height="87">
<rect width="36.2812" height="87.3292" rx="16.0154" transform="matrix(-0.986874 0.16149 0.188659 0.982043 183.106 113.745)" fill="#E1E5EE"/>
</mask>
<g mask="url(#mask0)">
<rect width="47.1928" height="94.7996" transform="matrix(0.986761 -0.162183 0.189462 0.981888 165.983 113.745)" fill="#E8E8E8"/>
</g>
<mask id="mask1" mask-type="alpha" maskUnits="userSpaceOnUse" x="353" y="116" width="48" height="87">
<rect width="36.2812" height="87.3292" rx="16.0154" transform="matrix(0.986874 0.16149 -0.188659 0.982043 367.512 113.745)" fill="#E1E5EE"/>
</mask>
<g mask="url(#mask1)">
<rect width="47.1928" height="94.7996" transform="matrix(-0.986761 -0.162183 -0.189462 0.981888 386.843 113.745)" fill="#E8E8E8"/>
</g>
<defs>
<filter id="filter0_d" x="0.220347" y="143.255" width="304.746" height="191.695" filterUnits="userSpaceOnUse" color-interpolation-filters="sRGB">
<feFlood flood-opacity="0" result="BackgroundImageFix"/>
<feColorMatrix in="SourceAlpha" type="matrix" values="0 0 0 0 0 0 0 0 0 0 0 0 0 0 0 0 0 0 127 0"/>
<feOffset dx="9.83051" dy="9.83051"/>
<feGaussianBlur stdDeviation="36.8644"/>
<feColorMatrix type="matrix" values="0 0 0 0 0.176471 0 0 0 0 0.176471 0 0 0 0 0.176471 0 0 0 0.08 0"/>
<feBlend mode="normal" in2="BackgroundImageFix" result="effect1_dropShadow"/>
<feBlend mode="normal" in="SourceGraphic" in2="effect1_dropShadow" result="shape"/>
</filter>
<filter id="filter1_d" x="149.221" y="0.988419" width="256.604" height="141.506" filterUnits="userSpaceOnUse" color-interpolation-filters="sRGB">
<feFlood flood-opacity="0" result="BackgroundImageFix"/>
<feColorMatrix in="SourceAlpha" type="matrix" values="0 0 0 0 0 0 0 0 0 0 0 0 0 0 0 0 0 0 127 0"/>
<feOffset dy="1.60154"/>
<feGaussianBlur stdDeviation="6.80656"/>
<feColorMatrix type="matrix" values="0 0 0 0 0.0386285 0 0 0 0 0.0648437 0 0 0 0 0.104167 0 0 0 0.13 0"/>
<feBlend mode="normal" in2="BackgroundImageFix" result="effect1_dropShadow"/>
<feBlend mode="normal" in="SourceGraphic" in2="effect1_dropShadow" result="shape"/>
</filter>
<filter id="filter2_d" x="372.359" y="129.711" width="44.7496" height="68.5523" filterUnits="userSpaceOnUse" color-interpolation-filters="sRGB">
<feFlood flood-opacity="0" result="BackgroundImageFix"/>
<feColorMatrix in="SourceAlpha" type="matrix" values="0 0 0 0 0 0 0 0 0 0 0 0 0 0 0 0 0 0 127 0"/>
<feOffset dy="1.60154"/>
<feGaussianBlur stdDeviation="6.80656"/>
<feColorMatrix type="matrix" values="0 0 0 0 0.0386285 0 0 0 0 0.0648437 0 0 0 0 0.104167 0 0 0 0.13 0"/>
<feBlend mode="normal" in2="BackgroundImageFix" result="effect1_dropShadow"/>
<feBlend mode="normal" in="SourceGraphic" in2="effect1_dropShadow" result="shape"/>
</filter>
<filter id="filter3_d" x="133.841" y="129.711" width="44.7496" height="68.5523" filterUnits="userSpaceOnUse" color-interpolation-filters="sRGB">
<feFlood flood-opacity="0" result="BackgroundImageFix"/>
<feColorMatrix in="SourceAlpha" type="matrix" values="0 0 0 0 0 0 0 0 0 0 0 0 0 0 0 0 0 0 127 0"/>
<feOffset dy="1.60154"/>
<feGaussianBlur stdDeviation="6.80656"/>
<feColorMatrix type="matrix" values="0 0 0 0 0.0386285 0 0 0 0 0.0648437 0 0 0 0 0.104167 0 0 0 0.13 0"/>
<feBlend mode="normal" in2="BackgroundImageFix" result="effect1_dropShadow"/>
<feBlend mode="normal" in="SourceGraphic" in2="effect1_dropShadow" result="shape"/>
</filter>
<linearGradient id="paint0_linear" x1="255.942" y1="38.591" x2="417.762" y2="109.351" gradientUnits="userSpaceOnUse">
<stop stop-color="#8A2387"/>
<stop offset="0.4926" stop-color="#E94057"/>
<stop offset="1" stop-color="#F27121"/>
</linearGradient>
<linearGradient id="paint1_linear" x1="142.763" y1="207.153" x2="142.763" y2="251.39" gradientUnits="userSpaceOnUse">
<stop stop-color="#8A2387"/>
<stop offset="1" stop-color="#701B6D"/>
</linearGradient>
<linearGradient id="paint2_linear" x1="326.47" y1="189.949" x2="326.47" y2="217.844" gradientUnits="userSpaceOnUse">
<stop stop-color="#F2F2F2"/>
<stop offset="1" stop-color="#EDEDED"/>
</linearGradient>
<linearGradient id="paint3_linear" x1="282.848" y1="205.924" x2="282.848" y2="223.127" gradientUnits="userSpaceOnUse">
<stop stop-color="#402E3C"/>
<stop offset="1" stop-color="#564E54"/>
</linearGradient>
</defs>
</svg>
